# AST/ASF file generated using VICON BodyLanguage
# -----------------------------------------------
:version 1.10
:name VICON
:units
  mass 1.0
  length 0.45
  angle deg
:documentation
   .ast/.asf automatically generated from VICON data using
   VICON BodyBuilder and BodyLanguage model FoxedUp or BRILLIANT.MOD
:root
   order TX TY TZ RX RY RZ
   axis XYZ
   position 0 0 0  
   orientation 0 0 0 
:bonedata
  begin
     id 1 
     name lhipjoint
     direction 0.612567 -0.751349 0.245431 
     length 2.42285 
     axis 0 0 0  XYZ
  end
  begin
     id 2 
     name lfemur
     direction 0.34202 -0.939693 0  
     length 7.11304  
     axis 0 0 20  XYZ
    dof rx ry rz
    limits (-160.0 20.0)
           (-70.0 70.0)
           (-60.0 70.0)
  end
  begin
     id 3 
     name ltibia
     direction 0.34202 -0.939693 0   
     length 7.84529   
     axis 0 0 20   XYZ
    dof rx
    limits (-10.0 170.0)
  end
  begin
     id 4 
     name lfoot
     direction 0.0779239 -0.214094 0.9737   
     length 1.97176   
     axis -90 7.62852e-016 20   XYZ
    dof rx rz
    limits (-45.0 90.0)
           (-70.0 20.0)
  end
  begin
     id 5 
     name ltoes
     direction 1.53565e-011 -4.21709e-011 1   
     length 0.993197   
     axis -90 7.62852e-016 20   XYZ
    dof rx
    limits (-90.0 20.0)
  end
  begin
     id 6 
     name rhipjoint
     direction -0.665722 -0.709315 0.231701   
     length 2.56642  
     axis 0 0 0  XYZ 
  end
  begin
     id 7 
     name rfemur
     direction -0.34202 -0.939693 0   
     length 7.32108   
     axis 0 0 -20   XYZ
    dof rx ry rz
    limits (-160.0 20.0)
           (-70.0 70.0)
           (-70.0 60.0)
  end
  begin
     id 8 
     name rtibia
     direction -0.34202 -0.939693 0   
     length 7.81254   
     axis 0 0 -20   XYZ
    dof rx
    limits (-10.0 170.0)
 end
 begin
     id 9 
     name rfoot
     direction -0.0832806 -0.228812 0.969902   
     length 2.08278  
     axis -90 -7.62852e-016 -20   XYZ
    dof rx rz
    limits (-45.0 90.0)
           (-20.0 70.0)
  end
  begin
     id 10 
     name rtoes
     direction -1.53589e-011 -4.22086e-011 1   
     length 1.04609   
     axis -90 -7.62852e-016 -20   XYZ
    dof rx
    limits (-90.0 20.0)
  end
  begin
     id 11 
     name lowerback
     direction -0.00506013 0.988403 -0.151766   
     length 2.01978   
     axis 0 0 0   XYZ
    dof rx ry rz
    limits (-20.0 45.0)
           (-30.0 30.0)
           (-30.0 30.0)
  end
  begin
     id 12 
     name upperback
     direction -0.00836389 0.99968 0.0238859   
     length 2.01276   
     axis 0 0 0   XYZ
    dof rx ry rz
    limits (-20.0 45.0)
           (-30.0 30.0)
           (-30.0 30.0)
  end
  begin
     id 13 
     name thorax
     direction -0.00684136 0.995386 0.0957043   
     length 2.07303   
     axis 0 0 0   XYZ
    dof rx ry rz
    limits (-20.0 45.0)
           (-30.0 30.0)
           (-30.0 30.0)
  end
  begin
     id 14 
     name lowerneck
     direction -0.0161045 0.999661 0.0204485   
     length 1.91243   
     axis 0 0 0   XYZ
    dof rx ry rz
    limits (-20.0 45.0)
           (-30.0 30.0)
           (-30.0 30.0)
  end
  begin
     id 15 
     name upperneck
     direction 0.0553583 0.990946 -0.122319   
     length 1.91574   
     axis 0 0 0   XYZ
    dof rx ry rz
    limits (-20.0 45.0)
           (-30.0 30.0)
           (-30.0 30.0)
  end
  begin
     id 16
     name head
     direction 0.0180273 0.998839 -0.0446756  
     length 1.92693  
     axis 0 0 0   XYZ
    dof rx ry rz
    limits (-20.0 45.0)
           (-30.0 30.0)
           (-30.0 30.0)
  end
  begin
     id 17 
     name lclavicle
     direction 0.945646 0.319323 -0.0615358  
     length 4.0076  
     axis 0 0 0   XYZ
    dof ry rz
    limits (-20.0 10.0)
           (0.0 20.0)
  end
  begin
     id 18 
     name lhumerus
     direction 1 -4.48967e-011 -2.79996e-027   
     length 5.64147   
     axis 180 -30 -90   XYZ
    dof rx ry rz
    limits (-60.0 90.0)
           (-90.0 90.0)
           (-90.0 90.0)
  end
  begin
     id 19
     name lradius
     direction 1 -4.48976e-011 -9.5122e-027   
     length 2.86444   
     axis 180 -30 -90   XYZ
    dof rx
    limits (-10.0 170.0)
  end
  begin
     id 20
     name lwrist
     direction 1 -4.48983e-011 -1.24047e-026   
     length 1.43222   
     axis 9.05591e-015 90 90   XYZ
    dof ry
    limits (-180.0 0.0)
 end
  begin
     id 21 
     name lhand
     direction 1 -4.4892e-011 -2.48094e-026   
     length 0.722123   
     axis 1.58305e-014 90 90   XYZ
    dof rx rz
    limits (-90.0 90.0)
           (-45.0 45.0)
  end
  begin
     id 22 
     name lfingers
     direction 1 -4.48895e-011 -4.96187e-026   
     length 0.582194   
     axis 3.1661e-014 90 90   XYZ
    dof rx
    limits (0.0 90.0)
  end
  begin
     id 23
     name lthumb
     direction 0.707107 -6.34961e-011 0.707107   
     length 0.835918   
     axis -90 45 2.85299e-015   XYZ
    dof rx rz
    limits (-45.0 45.0)
           (-45.0 45.0)
  end
  begin
     id 24 
     name rclavicle
     direction -0.932635 0.324218 -0.15835   
     length 3.65819  
     axis 0 0 0   XYZ 
    dof ry rz
    limits (-10.0 20.0)
           (-20.0 0.0)
  end
  begin
     id 25 
     name rhumerus
     direction -1 -4.48965e-011 -4.02296e-027  
     length 5.44729   
     axis 180 30 90   XYZ
    dof rx ry rz
    limits (-90.0 60.0)
           (-90.0 90.0)
           (-90.0 90.0)
  end
  begin
     id 26 
     name rradius
     direction -1 -4.48957e-011 -8.81087e-027   
     length 3.08821   
     axis 180 30 90   XYZ
    dof rx
    limits (-10.0 170.0)
  end
  begin
     id 27 
     name rwrist
     direction -1 -4.49015e-011 -1.24047e-026   
     length 1.5441   
     axis 9.05591e-015 -90 -90   XYZ
    dof ry
    limits (-180.0 0.0)
  end
  begin
     id 28
     name rhand
     direction -1 -4.4891e-011 -2.48094e-026   
     length 0.821049   
     axis 1.58305e-014 -90 -90   XYZ
    dof rx rz
    limits (-90.0 90.0)
           (-45.0 45.0)
  end
  begin
     id 29
     name rfingers
     direction -1 -4.48985e-011 -4.96187e-026   
     length 0.661951   
     axis 3.1661e-014 -90 -90   XYZ
    dof rx
    limits (0.0 90.0)
  end
  begin
     id 30
     name rthumb
     direction -0.707107 -6.34906e-011 0.707107   
     length 0.950433   
     axis -90 -45 -2.85299e-015   XYZ
    dof rx rz
    limits (-45.0 45.0)
           (-45.0 45.0)
  end
:hierarchy
  begin
    root lhipjoint rhipjoint lowerback
    lhipjoint lfemur
    lfemur ltibia
    ltibia lfoot
    lfoot ltoes
    rhipjoint rfemur
    rfemur rtibia
    rtibia rfoot
    rfoot rtoes
    lowerback upperback
    upperback thorax
    thorax lowerneck lclavicle rclavicle
    lowerneck upperneck
    upperneck head
    lclavicle lhumerus
    lhumerus lradius
    lradius lwrist
    lwrist lhand lthumb
    lhand lfingers
    rclavicle rhumerus
    rhumerus rradius
    rradius rwrist
    rwrist rhand rthumb
    rhand rfingers
  end

#!OML:ASF F:\VICON\USERDATA\INSTALL\rory3\rory3.ASF
:FULLY-SPECIFIED
:DEGREES
1888
root 3.42733 17.5593 0.384501 562.723 87.2188 566.179
lowerback 2.85971 -0.201244 3.33657
upperback -2.5449 -0.0978727 -0.112865
thorax -4.23937 -0.145018 -1.98173
lowerneck -9.73132 -5.51557 -3.39443
upperneck 13.0313 -7.59403 4.83843
head 5.8567 -3.47855 1.46399
rclavicle 3.28694e-015 -5.889e-015
rhumerus 77.4136 -15.4593 -40.9818
rradius 50.7513
rwrist -41.1016
rhand 2.86782 17.0166
rfingers 7.12502
rthumb 28.3342 -10.8597
lclavicle 3.28694e-015 -5.889e-015
lhumerus 84.7134 7.38173 44.2703
lradius 55.2412
lwrist 99.6288
lhand 4.13996 11.7632
lfingers 7.12502
lthumb 29.5493 39.4312
rfemur 2.75465 -1.56929 21.2037
rtibia 18.2702
rfoot -22.2396 -8.28061
rtoes -4.40078
lfemur -0.243592 -1.0797 -13.8415
ltibia 17.1977
lfoot -12.9759 -4.44999
ltoes -6.98368
1889
root 3.42782 17.5603 0.384498 562.524 87.2015 565.991
lowerback 2.87844 -0.212437 3.33937
upperback -2.54679 -0.111531 -0.10306
thorax -4.25277 -0.151966 -1.97225
lowerneck -9.72978 -5.4734 -3.36107
upperneck 12.9097 -7.54256 4.87301
head 5.81615 -3.45183 1.47516
rclavicle -3.98346e-015 -1.45361e-015
rhumerus 77.5677 -15.4723 -41.0614
rradius 50.8545
rwrist -41.1209
rhand 2.79498 16.9685
rfingers 7.12502
rthumb 28.2646 -10.9193
lclavicle -3.98346e-015 -1.45361e-015
lhumerus 84.8664 7.46997 44.2302
lradius 55.3217
lwrist 99.5325
lhand 4.1031 11.8173
lfingers 7.12502
lthumb 29.5141 39.4914
rfemur 2.77338 -1.57438 21.1993
rtibia 18.2612
rfoot -22.2328 -8.27266
rtoes -4.32708
lfemur -0.238502 -1.10472 -13.8406
ltibia 17.2181
lfoot -12.9783 -4.48647
ltoes -6.56582
1890
root 3.42763 17.5602 0.384205 561.618 87.1966 565.064
lowerback 2.8781 -0.214141 3.30624
upperback -2.57117 -0.114463 -0.0985736
thorax -4.27791 -0.152916 -1.94882
lowerneck -9.71082 -5.44383 -3.364
upperneck 12.8053 -7.50332 4.90611
head 5.77989 -3.43289 1.49085
rclavicle 3.86698e-016 -4.93234e-015
rhumerus 77.7316 -15.4975 -41.1274
rradius 50.8968
rwrist -41.1496
rhand 2.75013 17.0451
rfingers 7.12502
rthumb 28.2218 -10.8498
lclavicle 3.86698e-016 -4.93234e-015
lhumerus 85.0058 7.51118 44.2345
lradius 55.4226
lwrist 99.4195
lhand 4.0211 11.7642
lfingers 7.12502
lthumb 29.4358 39.4521
rfemur 2.75796 -1.56811 21.1578
rtibia 18.2529
rfoot -22.2606 -8.22933
rtoes -3.98738
lfemur -0.265144 -1.14374 -13.8959
ltibia 17.2172
lfoot -12.9656 -4.44115
ltoes -6.61049
1891
root 3.42808 17.5586 0.383819 561.295 87.1672 564.742
lowerback 2.87156 -0.231001 3.30456
upperback -2.5734 -0.136314 -0.0780053
thorax -4.27773 -0.163343 -1.92517
lowerneck -9.69536 -5.43193 -3.37362
upperneck 12.6366 -7.48035 4.90523
head 5.7237 -3.4262 1.49605
rclavicle -5.9946e-016 9.74045e-015
rhumerus 77.9186 -15.5111 -41.203
rradius 50.9464
rwrist -41.2031
rhand 2.77465 17.097
rfingers 7.12502
rthumb 28.2452 -10.794
lclavicle -5.9946e-016 9.74045e-015
lhumerus 85.122 7.63766 44.1583
lradius 55.5122
lwrist 99.4108
lhand 3.96663 11.7389
lfingers 7.12502
lthumb 29.3838 39.436
rfemur 2.76976 -1.587 21.1588
rtibia 18.2515
rfoot -22.3072 -8.23967
rtoes -3.95379
lfemur -0.252928 -1.15175 -13.8982
ltibia 17.1825
lfoot -12.9429 -4.44361
ltoes -6.74073
1892
root 3.43106 17.5591 0.384397 560.203 87.1486 563.64
lowerback 2.82956 -0.241958 3.24972
upperback -2.56336 -0.155142 -0.0716313
thorax -4.2441 -0.170275 -1.88664
lowerneck -9.63642 -5.42178 -3.35288
upperneck 12.3975 -7.45898 4.87868
head 5.63606 -3.42274 1.49011
rclavicle -1.81702e-015 -3.67752e-015
rhumerus 78.077 -15.5693 -41.1779
rradius 50.9763
rwrist -41.2677
rhand 2.72836 17.0508
rfingers 7.12502
rthumb 28.201 -10.8476
lclavicle -1.81702e-015 -3.67752e-015
lhumerus 85.2601 7.79574 44.0424
lradius 55.5862
lwrist 99.5159
lhand 3.86833 11.8517
lfingers 7.12502
lthumb 29.29 39.5652
rfemur 2.77861 -1.60123 21.1098
rtibia 18.2468
rfoot -22.3718 -8.19154
rtoes -3.66475
lfemur -0.237189 -1.14274 -13.9367
ltibia 17.142
lfoot -12.9246 -4.53404
ltoes -6.66334
1893
root 3.43291 17.5605 0.385074 559.877 87.1168 563.313
lowerback 2.81959 -0.257467 3.24074
upperback -2.57597 -0.175405 -0.0529313
thorax -4.25258 -0.179926 -1.86095
lowerneck -9.56055 -5.39276 -3.30487
upperneck 12.244 -7.41583 4.82901
head 5.56959 -3.40737 1.47415
rclavicle -2.00027e-015 -1.51573e-014
rhumerus 78.2286 -15.5872 -41.1446
rradius 50.9659
rwrist -41.3309
rhand 2.63712 17.1041
rfingers 7.12502
rthumb 28.1137 -10.8086
lclavicle -2.00027e-015 -1.51573e-014
lhumerus 85.3344 7.93576 43.8692
lradius 55.636
lwrist 99.5475
lhand 3.95425 11.7395
lfingers 7.12502
lthumb 29.372 39.4386
rfemur 2.79338 -1.6221 21.1092
rtibia 18.2428
rfoot -22.3468 -8.22744
rtoes -3.77625
lfemur -0.212318 -1.11622 -13.9311
ltibia 17.0891
lfoot -12.886 -4.5892
ltoes -6.54479
1894
root 3.43439 17.5611 0.384561 560.477 87.0924 563.902
lowerback 2.78996 -0.254758 3.31195
upperback -2.5915 -0.168225 -0.0389369
thorax -4.25199 -0.178278 -1.88693
lowerneck -9.45147 -5.38446 -3.30904
upperneck 12.0622 -7.4015 4.84437
head 5.49447 -3.40469 1.48545
rclavicle -2.48481e-015 -3.03147e-015
rhumerus 78.4242 -15.6079 -41.2413
rradius 50.9064
rwrist -41.2722
rhand 2.67618 17.1001
rfingers 7.12502
rthumb 28.1511 -10.8065
lclavicle -2.48481e-015 -3.03147e-015
lhumerus 85.4023 8.02307 43.7768
lradius 55.753
lwrist 99.5175
lhand 4.10525 11.524
lfingers 7.12502
lthumb 29.5162 39.1978
rfemur 2.78247 -1.64674 21.1497
rtibia 18.248
rfoot -22.3095 -8.29486
rtoes -4.25134
lfemur -0.185566 -1.12869 -13.8925
ltibia 17.0167
lfoot -12.8308 -4.59071
ltoes -6.12571
